<svg width="416" height="416" viewBox="0 0 416 416" fill="none" xmlns="http://www.w3.org/2000/svg">
<path d="M303.55 101.4C267.8 142.35 243.1 151.45 178.75 146.25C107.25 140.4 81.9 150.15 71.5 189.8C63.05 219.7 48.75 240.5 35.75 240.5C31.2 240.5 24.05 245.05 19.5 250.25C12.35 258.7 14.3 260 28.6 260C52 260 70.85 248.95 77.35 232.05C83.2 218.4 83.2 218.4 87.75 236.6C91 248.95 89.05 261.95 81.9 276.9C68.25 306.15 68.25 350.35 81.25 355.55C95.55 360.75 100.75 352.95 91.65 341.9C82.55 330.85 87.75 292.5 98.15 292.5C101.4 292.5 104 301.6 104 312C104 323.7 107.9 333.45 113.75 336.05C127.4 340.6 134.55 333.45 124.8 323.7C111.15 310.05 116.35 289.9 144.3 252.2L171.6 215.15L194.35 229.45C206.7 236.6 228.8 245.05 243.75 247C268.45 250.25 269.75 251.55 274.95 279.5C287.3 350.35 288.6 354.25 304.2 356.2C320.45 358.8 323.7 346.45 308.75 340.6C301.6 337.35 299 325.65 299 293.15C299 256.75 301.6 245.7 315.25 227.5C324.35 215.15 331.5 201.5 331.5 196.95C331.5 192.4 334.1 183.3 338 176.8C341.25 170.95 347.1 157.95 351 148.2C356.2 131.95 358.8 130.65 374.4 136.5C391.3 143 403 140.4 403 130.65C403 127.4 396.5 122.85 388.7 120.25C374.4 115.7 374.4 115.7 386.75 112.45C417.95 104.65 422.5 84.5 393.25 84.5C384.8 84.5 375.7 81.25 373.75 78C371.8 74.1 360.1 71.5 349.05 71.5C332.8 72.15 323.05 78 303.55 101.4Z" fill="#FFFEFE"/>
</svg>
