<svg width="248" height="248" viewBox="0 0 248 248" fill="none" xmlns="http://www.w3.org/2000/svg">
<path d="M42.625 18.6C42.625 23.6375 39.9125 32.9375 36.0375 39.9125C27.5125 56.9625 27.9 81.375 37.5875 97.2625C44.95 109.275 45.3375 112.375 41.075 132.912C37.975 148.412 33.325 158.1 25.9625 165.075C20.15 170.112 15.5 178.25 15.5 182.512C15.5 186.775 13.95 193.75 11.625 197.625C6.5875 206.925 10.4625 217 19.375 217C24.8 217 25.9625 213.9 25.575 202.275C25.1875 189.487 26.7375 187.162 38.75 181.35C51.925 174.762 52.3125 174.762 55.025 182.512C61.6125 199.562 74.0125 213.125 83.7 213.125C88.7375 213.125 93 211.187 93 209.25C93 206.925 90.675 205.375 87.575 205.375C84.475 205.375 79.05 201.5 75.95 196.85C70.1375 188.712 70.525 187.55 84.0875 175.15C96.4875 164.3 101.525 161.975 120.9 161.2L143.375 160.037V179.8C143.375 206.925 146.862 217 155.387 217C163.137 217 165.462 211.187 159.262 207.7C155.387 204.987 161.2 170.5 166.237 165.462C173.212 158.487 180.962 166.237 189.875 188.712C200.725 216.225 204.212 220.875 213.512 220.875C222.812 220.875 222.812 218.937 213.9 210.025C201.887 198.012 200.337 170.112 210.412 140.275C217 120.125 221.262 113.15 229.787 109.275C246.45 101.137 241.412 83.7 220.1 76.3375C216.225 74.7875 213.125 70.9125 213.125 67.425C213.125 62.3875 211.962 62 207.7 65.4875C204.6 67.8125 199.95 69.3625 197.237 68.975C194.525 68.2 191.425 73.2375 189.487 81.375C185.612 99.975 178.25 103.85 156.162 100.362C145.7 98.8125 120.125 97.2625 98.8125 96.875C57.35 96.875 53.8625 95.7125 46.8875 82.5375C41.075 70.9125 41.4625 59.2875 49.2125 39.525C55.025 24.025 55.025 22.475 49.2125 16.275C43.0125 10.4625 42.625 10.4625 42.625 18.6Z" fill="white"/>
</svg>
