<svg width="264" height="264" viewBox="0 0 264 264" fill="none" xmlns="http://www.w3.org/2000/svg">
<path d="M234.63 191.29C250.03 205.26 239.8 231 219.12 231H121.66C90.75 231 66 206.25 66 175.34V174.79C40.7 169.62 22 147.51 22 121C22 90.75 46.42 66 77 66H104.5C107.8 66 110 63.47 110 60.5C110 57.53 107.8 55 104.5 55H77V33H104.5C119.68 33 132 45.43 132 60.5C132 75.79 119.68 88 104.5 88H77C58.74 88 44 102.63 44 121C44 136.07 54.12 148.5 67.54 152.57C73.7 128.37 95.37 110 121.66 110C130.46 110 139.26 112.42 146.96 116.05C131.45 124.74 121 140.8 121 159.5C121 173.25 126.5 185.57 135.63 194.37L143.33 186.67C136.18 179.96 132 170.17 132 159.5C132 131.01 157.74 121 170.5 121C193.38 121 213.95 141.79 208.34 167.53L234.63 191.29ZM198 209C204.16 209 209 204.16 209 198C209 191.84 204.16 187 198 187C191.84 187 187 191.84 187 198C187 204.16 191.84 209 198 209Z" fill="white"/>
</svg>
