<svg width="476" height="476" viewBox="0 0 476 476" fill="none" xmlns="http://www.w3.org/2000/svg">
<path d="M245.438 301.07L276.824 269.684C292.769 252.984 305.25 233.292 313.547 211.744C321.844 190.197 325.794 167.22 325.168 144.139C325.215 136.344 327.182 128.68 330.894 121.826L352.091 82.8538C354.933 77.5023 359.208 73.0472 364.438 69.9869C366.975 68.6382 369.759 67.8177 372.623 67.5748C375.486 67.3319 378.369 67.6717 381.098 68.5738C381.548 68.6991 382.02 68.7194 382.479 68.6331C382.939 68.5467 383.372 68.356 383.745 68.0757C384.119 67.7954 384.424 67.433 384.635 67.0164C384.846 66.5999 384.959 66.1403 384.965 65.6731V61.285C385.061 56.0335 383.3 50.9167 379.994 46.8353C376.688 42.7539 372.049 39.9696 366.892 38.9725L334.688 32.8738C318.916 29.7315 302.541 32.2325 288.426 39.9394L248.041 62.2519C216.318 79.535 188.77 103.562 167.336 132.642C145.902 161.721 131.104 195.146 123.983 230.562L92.3738 388.535C90.7648 396.576 91.1652 404.89 93.5395 412.739C95.9137 420.589 100.188 427.731 105.984 433.532C112.954 440.484 122.395 444.389 132.239 444.391H189.136C194.201 444.418 199.175 443.042 203.507 440.417C207.839 437.792 211.36 434.019 213.679 429.516C215.849 425.281 216.607 420.463 215.844 415.767C215.082 411.07 212.838 406.741 209.44 403.41L195.458 389.428C192.768 386.745 191.245 383.111 191.218 379.312V362.95C191.218 360.977 192.002 359.086 193.397 357.691C194.791 356.296 196.683 355.512 198.656 355.512C200.628 355.512 202.52 356.296 203.915 357.691C205.31 359.086 206.093 360.977 206.093 362.95V364.437C206.089 368.031 207.506 371.479 210.035 374.032L242.388 406.385C247.713 411.714 254.936 414.71 262.469 414.715H276.824C280.217 414.713 283.542 415.667 286.418 417.467L291.178 420.442C291.592 420.69 292.063 420.824 292.545 420.832C293.027 420.841 293.503 420.722 293.925 420.488C294.346 420.255 294.699 419.915 294.948 419.502C295.197 419.089 295.333 418.618 295.343 418.136V413.376C295.343 409.786 293.917 406.343 291.378 403.805C288.84 401.266 285.397 399.84 281.807 399.84H278.683C272.16 399.835 265.874 397.395 261.056 392.998L246.702 379.982C243.257 376.857 240.505 373.046 238.622 368.793C236.739 364.54 235.767 359.94 235.769 355.289V324.052C235.792 319.774 236.658 315.543 238.317 311.599C239.976 307.656 242.396 304.078 245.438 301.07V301.07Z" fill="white"/>
</svg>
